<?xml version="1.0" standalone="no"?>
<!DOCTYPE svg PUBLIC "-//W3C//DTD SVG 20010904//EN"
 "http://www.w3.org/TR/2001/REC-SVG-20010904/DTD/svg10.dtd">
<svg version="1.0" xmlns="http://www.w3.org/2000/svg"
 width="746.000000pt" height="800.000000pt" viewBox="0 0 746.000000 800.000000"
 preserveAspectRatio="xMidYMid meet">

<g transform="translate(0.000000,800.000000) scale(0.100000,-0.100000)"
fill="#000000" stroke="none">
<path d="M3500 7333 c-344 -25 -689 -106 -1040 -245 -256 -101 -441 -211 -675
-398 -621 -500 -1020 -1213 -1130 -2020 -23 -167 -30 -468 -16 -635 67 -770
385 -1448 928 -1975 151 -147 199 -188 120 -102 -102 110 -216 257 -303 389
-80 122 -115 168 -74 98 43 -73 122 -189 187 -274 35 -45 62 -85 60 -88 -3 -2
-43 38 -90 89 -392 425 -649 928 -766 1499 -44 213 -55 334 -55 604 0 279 11
394 60 635 162 789 641 1494 1319 1943 145 95 263 156 450 230 890 351 1782
325 2593 -74 79 -39 141 -73 139 -75 -3 -3 -22 2 -42 11 -21 8 -40 14 -42 12
-6 -7 119 -57 128 -51 5 3 9 0 9 -6 0 -6 4 -9 9 -6 5 4 11 2 13 -3 3 -9 128
-74 128 -67 0 2 -49 33 -108 69 -415 249 -868 396 -1352 437 -107 9 -346 11
-450 3z m1740 -413 c8 -5 11 -10 5 -10 -5 0 -17 5 -25 10 -8 5 -10 10 -5 10 6
0 17 -5 25 -10z m-3644 -4872 l29 -33 -32 29 c-31 28 -38 36 -30 36 2 0 16
-15 33 -32z"/>
<path d="M3690 7170 c-47 -5 -110 -14 -140 -19 l-55 -10 55 4 c30 3 109 10
175 16 109 10 448 7 605 -5 l55 -5 -50 9 c-71 14 -544 20 -645 10z"/>
<path d="M4510 7125 c69 -13 141 -26 160 -29 35 -6 35 -6 5 4 -39 13 -243 50
-269 49 -12 0 35 -11 104 -24z"/>
<path d="M3453 7133 c9 -2 23 -2 30 0 6 3 -1 5 -18 5 -16 0 -22 -2 -12 -5z"/>
<path d="M3375 7125 c-5 -2 -54 -13 -108 -25 -54 -12 -97 -24 -95 -26 3 -2 63
9 134 25 71 16 118 29 104 29 -14 0 -29 -1 -35 -3z"/>
<path d="M4718 7083 c7 -3 16 -2 19 1 4 3 -2 6 -13 5 -11 0 -14 -3 -6 -6z"/>
<path d="M4780 7068 c139 -45 245 -76 248 -73 5 5 -203 71 -248 78 l-35 6 35
-11z"/>
<path d="M3012 7029 c-68 -22 -122 -42 -120 -44 2 -2 64 16 138 40 74 24 128
44 120 44 -8 0 -71 -18 -138 -40z"/>
<path d="M5050 6982 c8 -5 26 -13 40 -16 17 -5 20 -4 10 2 -8 5 -26 13 -40 16
-17 5 -20 4 -10 -2z"/>
<path d="M2775 6941 c-187 -79 -526 -266 -575 -318 -8 -9 5 -2 30 14 158 106
387 229 557 299 48 20 90 38 92 40 12 11 -23 -1 -104 -35z"/>
<path d="M2055 6518 c-145 -112 -400 -364 -514 -508 -46 -58 -121 -161 -167
-230 -80 -122 -224 -375 -224 -395 0 -5 25 37 56 95 240 452 502 758 944 1102
19 15 33 27 30 28 -3 0 -59 -42 -125 -92z"/>
<path d="M4057 6303 c-4 -58 -7 -146 -7 -194 0 -99 -9 -87 88 -108 l42 -9 0
209 0 209 -58 0 -59 0 -6 -107z m113 -99 l0 -196 -47 7 c-27 4 -51 9 -55 12
-10 5 -10 111 -1 261 l6 112 49 0 48 0 0 -196z"/>
<path d="M4660 5374 c-94 -107 -182 -207 -195 -222 l-23 -26 -68 55 c-202 163
-347 217 -558 207 -165 -9 -260 -58 -310 -161 -31 -63 -43 -165 -27 -224 13
-47 61 -114 106 -149 l30 -23 0 107 c0 97 3 112 27 158 31 60 73 98 143 130
28 13 44 24 37 24 -21 0 -89 -38 -127 -72 -60 -52 -87 -118 -94 -228 l-6 -94
-38 39 c-71 73 -88 137 -67 250 32 170 162 245 405 232 121 -6 227 -38 323
-96 76 -46 130 -88 97 -75 -139 52 -162 57 -285 62 -69 2 -141 0 -160 -5 -23
-6 5 -8 92 -5 231 8 374 -48 589 -227 l35 -30 160 181 c87 100 174 199 193
220 l34 39 -44 46 c-24 24 -56 53 -70 64 l-27 19 -172 -196z m300 69 c0 -2
-85 -100 -188 -217 l-188 -212 -61 50 c-34 28 -62 55 -63 59 -1 5 83 104 186
221 l188 214 63 -56 c35 -31 63 -57 63 -59z"/>
<path d="M1117 5313 c-39 -87 -68 -165 -64 -169 2 -2 16 29 32 68 15 40 37 90
47 111 11 22 17 41 15 43 -2 3 -16 -22 -30 -53z"/>
<path d="M1016 5053 c-14 -43 -26 -83 -25 -88 0 -6 14 28 30 74 16 47 27 86
25 88 -2 3 -16 -31 -30 -74z"/>
<path d="M976 4924 c-4 -14 -5 -28 -3 -31 3 -2 8 8 11 23 4 14 5 28 3 31 -3 2
-8 -8 -11 -23z"/>
<path d="M941 4792 c-12 -49 -21 -96 -20 -103 0 -8 12 31 25 85 13 55 22 101
20 103 -2 3 -13 -36 -25 -85z"/>
<path d="M897 4568 c-27 -163 -37 -276 -35 -373 l2 -90 3 75 c4 109 21 281 39
388 9 51 14 95 12 98 -3 2 -12 -42 -21 -98z"/>
<path d="M3325 4125 c31 -25 247 -146 390 -218 72 -36 149 -78 173 -92 23 -14
42 -24 42 -21 0 3 -39 29 -88 59 -78 49 -143 83 -452 244 -47 24 -76 37 -65
28z"/>
<path d="M864 3915 c0 -60 1 -84 3 -52 2 32 2 81 0 110 -2 29 -3 3 -3 -58z"/>
<path d="M4820 3971 c11 -22 32 -79 47 -128 25 -82 27 -101 27 -273 1 -160 -2
-197 -22 -273 -101 -402 -373 -664 -762 -736 l-65 -12 0 -277 0 -277 -187 -3
-188 -2 0 -60 0 -60 255 0 255 0 0 275 0 274 43 11 c196 50 366 139 491 259
207 200 310 481 293 805 -6 121 -37 247 -83 339 -26 52 -111 177 -120 177 -2
0 5 -18 16 -39z m96 -146 c118 -245 109 -602 -21 -870 -119 -246 -329 -415
-617 -499 -49 -13 -92 -28 -98 -31 -6 -4 -10 -106 -10 -276 l0 -269 -245 0
-245 0 0 50 0 50 178 0 c125 0 182 4 190 12 9 9 12 85 12 280 l0 268 28 5
c237 48 401 133 543 281 108 114 165 206 218 358 75 212 82 513 17 695 -9 24
-16 46 -16 50 1 14 35 -39 66 -104z"/>
<path d="M871 3770 c-3 -104 78 -505 129 -640 25 -67 21 -43 -13 70 -40 136
-76 307 -96 461 -11 79 -20 128 -20 109z"/>
<path d="M1026 3050 c9 -37 82 -223 95 -240 6 -8 9 -10 7 -5 -7 23 -90 232
-98 250 -9 17 -9 16 -4 -5z"/>
<path d="M2764 2781 c71 -75 270 -192 445 -261 94 -38 268 -90 299 -90 8 0 12
16 12 48 l0 48 -117 22 c-201 39 -429 125 -613 232 l-55 33 29 -32z m397 -179
c68 -23 175 -51 237 -63 l112 -22 0 -39 c0 -21 -4 -38 -8 -38 -5 0 -55 13
-113 29 -190 54 -382 142 -516 238 -35 24 -63 45 -63 46 0 1 51 -23 114 -54
63 -31 170 -74 237 -97z"/>
<path d="M1130 2787 c0 -11 110 -227 115 -227 5 0 -102 219 -111 229 -2 2 -4
1 -4 -2z"/>
<path d="M1265 2520 c9 -16 18 -30 21 -30 2 0 -2 14 -11 30 -9 17 -18 30 -21
30 -2 0 2 -13 11 -30z"/>
</g>
</svg>
